<svg id="Laag_1" data-name="Laag 1" xmlns="http://www.w3.org/2000/svg" viewBox="0 0 137.04 89.16"><defs><style>.cls-1{fill:#a9d15d;}.cls-1,.cls-3,.cls-4,.cls-5,.cls-6,.cls-7{fill-rule:evenodd;}.cls-2,.cls-3{fill:#005c98;}.cls-4{fill:#ed8b00;}.cls-5{fill:#de4699;}.cls-6{fill:#002855;}.cls-7{fill:#00bce7;}</style></defs><title>Woonstad_A1_RGB</title><path class="cls-1" d="M121.78,124.34A33.16,33.16,0,1,0,88.62,91.18a33.16,33.16,0,0,0,33.16,33.16" transform="translate(-35.68 -35.18)"/><path class="cls-2" d="M80.53,109.25a1.75,1.75,0,0,1-.53.25,2.17,2.17,0,0,1-.75.14c-.93,0-1.39-.66-1.39-2v-4.85H81V102H77.86v-2h-.78v2H72.53v-2h-.78v2H70.51v.75h1.24v4.85a3,3,0,0,0,.61,2.12,2.09,2.09,0,0,0,1.56.63,2.9,2.9,0,0,0,1.84-.62l0,0-.35-.63-.25.16a2,2,0,0,1-.53.25,2.21,2.21,0,0,1-.75.14c-.94,0-1.39-.66-1.39-2v-4.85h4.55v4.85a3,3,0,0,0,.62,2.12,2.07,2.07,0,0,0,1.55.63,2.86,2.86,0,0,0,1.84-.62l0,0-.35-.63Z" transform="translate(-35.68 -35.18)"/><path class="cls-2" d="M57.32,103.66V102h-.78v8.18h.78v-3.95a4.47,4.47,0,0,1,.3-1.71,2.6,2.6,0,0,1,.8-1.1,3.51,3.51,0,0,1,2.17-.72h.07v-.86h-.07a3.45,3.45,0,0,0-3.27,1.79" transform="translate(-35.68 -35.18)"/><path class="cls-2" d="M68.59,103.11a4.33,4.33,0,0,0-6.07,0,4.25,4.25,0,0,0,0,6,4.31,4.31,0,0,0,6.07,0,4.23,4.23,0,0,0,0-6ZM68,108.6a3.43,3.43,0,0,1-4.92,0,3.52,3.52,0,0,1,0-5,3.45,3.45,0,0,1,4.92,0,3.55,3.55,0,0,1,0,5Z" transform="translate(-35.68 -35.18)"/><path class="cls-2" d="M89.88,106.05a4.17,4.17,0,0,0-1.16-2.94,3.69,3.69,0,0,0-2.79-1.24,3.8,3.8,0,0,0-2.84,1.24,4.26,4.26,0,0,0-1.18,3,4.15,4.15,0,0,0,1.24,3,4.07,4.07,0,0,0,3,1.25A4.22,4.22,0,0,0,89.3,109l0,0-.54-.52,0,0a3.4,3.4,0,0,1-2.63,1.18,3.23,3.23,0,0,1-2.31-.94,3.49,3.49,0,0,1-1.09-2.22h7.13Zm-7.15-.32a3.56,3.56,0,0,1,1-2.19,2.93,2.93,0,0,1,2.16-.93,2.85,2.85,0,0,1,2.12.93,3.55,3.55,0,0,1,1,2.19Z" transform="translate(-35.68 -35.18)"/><path class="cls-2" d="M127.24,102.66a2.9,2.9,0,0,0-2.18-.79,3.71,3.71,0,0,0-1.75.42,3.06,3.06,0,0,0-1.2,1.17,2.62,2.62,0,0,0-2.69-1.59,3,3,0,0,0-2.7,1.4V102h-.78v8.18h.78V105.3a2.57,2.57,0,0,1,.8-1.92,2.52,2.52,0,0,1,1.81-.77,2.17,2.17,0,0,1,1.73.62,2.83,2.83,0,0,1,.53,1.85v5.13h.78v-5a2.45,2.45,0,0,1,.77-1.89,2.71,2.71,0,0,1,1.84-.7,2.17,2.17,0,0,1,1.73.62,2.89,2.89,0,0,1,.52,1.85v5.13H128v-5.32a3.1,3.1,0,0,0-.77-2.23" transform="translate(-35.68 -35.18)"/><path class="cls-2" d="M92.26,103.66V102h-.78v8.18h.78v-3.95a4.47,4.47,0,0,1,.3-1.71,2.6,2.6,0,0,1,.8-1.1,3.54,3.54,0,0,1,1-.55,3.5,3.5,0,0,1,1.12-.17h.07v-.86h-.07a3.44,3.44,0,0,0-3.27,1.79" transform="translate(-35.68 -35.18)"/><path class="cls-2" d="M113,102v1.69a3.82,3.82,0,0,0-1.26-1.3,3.72,3.72,0,0,0-2-.55,3.9,3.9,0,0,0-2.89,1.24,4.38,4.38,0,0,0,0,6,3.87,3.87,0,0,0,2.89,1.25,3.73,3.73,0,0,0,3.27-1.86v1.69h.78V102Zm-1,6.6a3.07,3.07,0,0,1-2.31,1,3,3,0,0,1-2.32-1,3.73,3.73,0,0,1,0-5,3.13,3.13,0,0,1,4.64,0,3.54,3.54,0,0,1,1,2.48A3.5,3.5,0,0,1,112,108.63Z" transform="translate(-35.68 -35.18)"/><path class="cls-2" d="M103.4,99v4.71a3.82,3.82,0,0,0-1.26-1.3,3.72,3.72,0,0,0-2-.55,3.91,3.91,0,0,0-2.89,1.24,4.38,4.38,0,0,0,0,6,3.88,3.88,0,0,0,2.89,1.25,3.73,3.73,0,0,0,3.27-1.86v1.69h.78V99Zm-1,9.63a3.13,3.13,0,0,1-2.32,1,3.06,3.06,0,0,1-2.32-1,3.73,3.73,0,0,1,0-5,3.13,3.13,0,0,1,4.64,0,3.76,3.76,0,0,1,0,5Z" transform="translate(-35.68 -35.18)"/><polygon class="cls-2" points="11.57 51.3 10.32 57.32 9.44 51.3 5.75 51.3 4.87 57.32 3.62 51.3 0 51.3 3.15 61.62 6.55 61.62 7.6 55.6 8.64 61.62 12.04 61.62 15.19 51.3 11.57 51.3"/><path class="cls-2" d="M60.82,87.83a6,6,0,0,0-8,0,5.27,5.27,0,0,0,0,7.62,6,6,0,0,0,8,0,5.27,5.27,0,0,0,0-7.62Zm-2.66,5.34a1.84,1.84,0,0,1-2.72,0,2.19,2.19,0,0,1-.52-1.52,2.22,2.22,0,0,1,.53-1.54,1.8,1.8,0,0,1,2.7,0,2.22,2.22,0,0,1,.53,1.54A2.19,2.19,0,0,1,58.16,93.17Z" transform="translate(-35.68 -35.18)"/><path class="cls-2" d="M73.13,87.83a6,6,0,0,0-8,0,5.27,5.27,0,0,0,0,7.62,6,6,0,0,0,8,0,5.29,5.29,0,0,0,0-7.62Zm-2.67,5.34a1.84,1.84,0,0,1-2.72,0,2.19,2.19,0,0,1-.52-1.52,2.27,2.27,0,0,1,.53-1.54,1.75,1.75,0,0,1,1.35-.61,1.72,1.72,0,0,1,1.35.61A2.23,2.23,0,0,1,71,91.65,2.2,2.2,0,0,1,70.46,93.17Z" transform="translate(-35.68 -35.18)"/><path class="cls-2" d="M79.53,87.61V86.47H76V96.8h3.73V91.93a2.61,2.61,0,0,1,.46-1.61,1.49,1.49,0,0,1,1.26-.61q1.17,0,1.17,1.8V96.8h3.72V91c0-.5,0-.94,0-1.31A5.5,5.5,0,0,0,86,88.47a3.27,3.27,0,0,0-.59-1.13,3,3,0,0,0-1.09-.76,4.2,4.2,0,0,0-1.66-.31,4,4,0,0,0-3.16,1.34" transform="translate(-35.68 -35.18)"/><path class="cls-2" d="M89,87.18a3,3,0,0,0-1.26,2.53,2.53,2.53,0,0,0,1,2.12,7.89,7.89,0,0,0,2.92,1.23l.36.07.36.08.24.09a.51.51,0,0,1,.21.13.21.21,0,0,1,.06.16c0,.12-.09.22-.27.29a2,2,0,0,1-.47.14l-.28,0A6.4,6.4,0,0,1,90,93.84a5.31,5.31,0,0,1-1.36-.66l-1.19,2.59a7.39,7.39,0,0,0,7.4.5,3.16,3.16,0,0,0,1.26-1.12,3,3,0,0,0,.5-1.7,2.67,2.67,0,0,0-.54-1.69,3,3,0,0,0-1.3-1,13.66,13.66,0,0,0-1.52-.52c-.51-.13-.94-.26-1.29-.38s-.53-.26-.53-.43.21-.32.65-.32a8.25,8.25,0,0,1,3,.61l1.11-2.47a8.93,8.93,0,0,0-4.24-1,5,5,0,0,0-3,.91" transform="translate(-35.68 -35.18)"/><path class="cls-2" d="M112.49,86.47v1.15a2.06,2.06,0,0,0-1.16-1,4.74,4.74,0,0,0-1.62-.31,4,4,0,0,0-3.34,1.52,6.73,6.73,0,0,0,0,7.7A4,4,0,0,0,109.71,97a4.51,4.51,0,0,0,1.62-.31,2.06,2.06,0,0,0,1.16-1V96.8H116V86.47Zm-.65,6.7a1.52,1.52,0,0,1-2.42,0,2.38,2.38,0,0,1-.47-1.52,2.46,2.46,0,0,1,.47-1.54,1.51,1.51,0,0,1,2.42,0,2.46,2.46,0,0,1,.47,1.54A2.38,2.38,0,0,1,111.84,93.17Z" transform="translate(-35.68 -35.18)"/><path class="cls-2" d="M124.29,83.5v3.84a3,3,0,0,0-2.46-1.07,4.17,4.17,0,0,0-3.42,1.53,5.88,5.88,0,0,0-1.25,3.85,6,6,0,0,0,1.21,3.84A4,4,0,0,0,121.71,97a4.51,4.51,0,0,0,1.62-.31,2.06,2.06,0,0,0,1.16-1V96.8H128V83.5Zm-.45,9.67a1.52,1.52,0,0,1-2.42,0,2.38,2.38,0,0,1-.47-1.52,2.46,2.46,0,0,1,.47-1.54,1.51,1.51,0,0,1,2.42,0,2.46,2.46,0,0,1,.47,1.54A2.38,2.38,0,0,1,123.84,93.17Z" transform="translate(-35.68 -35.18)"/><path class="cls-3" d="M132,97.05a2.23,2.23,0,1,0-2.25-2.22A2.23,2.23,0,0,0,132,97.05" transform="translate(-35.68 -35.18)"/><path class="cls-3" d="M105.51,86.44a8,8,0,0,0-1.74,2.92h-1.35v3.81c0,.43.19.65.57.65a2.5,2.5,0,0,0,.69-.12A7.75,7.75,0,0,0,105,96.25,6.41,6.41,0,0,1,102,97a3.2,3.2,0,0,1-2.42-.93,3.64,3.64,0,0,1-.88-2.62V89.36H97.18V86.44h1.53V84.58l3.71-.92v2.78Z" transform="translate(-35.68 -35.18)"/><path class="cls-4" d="M167.82,123.8a4.91,4.91,0,1,0-4.91-4.9,4.9,4.9,0,0,0,4.91,4.9" transform="translate(-35.68 -35.18)"/><path class="cls-5" d="M157.6,63.07A12.61,12.61,0,1,0,145,50.46,12.6,12.6,0,0,0,157.6,63.07" transform="translate(-35.68 -35.18)"/><path class="cls-3" d="M79.1,35.18A12.6,12.6,0,0,0,66.49,47.79c0,.31,0,.62,0,.94h.13a7.67,7.67,0,0,1,7.68,7.67,7.54,7.54,0,0,1-.55,2.82A12.44,12.44,0,0,0,79.1,60.4a12.61,12.61,0,0,0,0-25.22Z" transform="translate(-35.68 -35.18)"/><path class="cls-6" d="M66.66,48.72h-.13a12.59,12.59,0,0,0,7.26,10.48,7.54,7.54,0,0,0,.55-2.82A7.67,7.67,0,0,0,66.66,48.72Z" transform="translate(-35.68 -35.18)"/><path class="cls-7" d="M66.53,48.73a7.67,7.67,0,1,0,7.26,10.48A12.59,12.59,0,0,1,66.53,48.73Z" transform="translate(-35.68 -35.18)"/></svg>